<svg width="735" height="420" viewBox="0 0 735 420" fill="none" xmlns="http://www.w3.org/2000/svg">
<path d="M735 0C668.726 -2.89694e-06 615 53.7258 615 120V150C615 232.843 547.843 300 465 300H335C312.909 300 295 317.909 295 340V350.5C295 364.031 284.031 375 270.5 375H269.5C255.969 375 245 364.031 245 350.5V340C245 317.909 227.091 300 205 300H120C53.7258 300 4.65786e-06 353.726 0 420V0H735Z" fill="white"/>
<path d="M270 395C276.075 395 281 399.925 281 406C281 412.075 276.075 417 270 417C263.925 417 259 412.075 259 406C259 399.925 263.925 395 270 395Z" fill="white"/>
</svg>
