<svg width="629" height="364" viewBox="0 0 629 364" fill="none" xmlns="http://www.w3.org/2000/svg">
<mask id="path-1-inside-1_1_8309" fill="white">
<path d="M181.651 363.943C154.058 363.943 132.298 363.942 114.508 362.936C99.5653 362.091 92.5196 344.564 92.5197 329.598V329.598C92.5197 300.913 69.2656 277.659 40.5802 277.659V277.659C19.8967 277.659 2.30599 262.802 1.50425 242.134C0.867477 225.719 0.867323 206.141 0.867325 182.221C0.867331 116.338 0.86786 83.3958 14.1701 58.7425C24.4456 39.6986 40.0676 24.0766 59.1115 13.8011C83.7648 0.498962 116.394 0.498368 181.652 0.498374L448.137 0.498397C513.395 0.498403 546.024 0.498957 570.677 13.8011C589.721 24.0767 605.343 39.6987 615.618 58.7426C628.921 83.3959 628.921 116.338 628.921 182.221C628.921 248.104 628.92 281.045 615.618 305.699C605.343 324.743 589.721 340.364 570.677 350.64C546.024 363.942 513.395 363.943 448.137 363.943L181.651 363.943Z"/>
</mask>
<path d="M181.651 363.943C154.058 363.943 132.298 363.942 114.508 362.936C99.5653 362.091 92.5196 344.564 92.5197 329.598V329.598C92.5197 300.913 69.2656 277.659 40.5802 277.659V277.659C19.8967 277.659 2.30599 262.802 1.50425 242.134C0.867477 225.719 0.867323 206.141 0.867325 182.221C0.867331 116.338 0.86786 83.3958 14.1701 58.7425C24.4456 39.6986 40.0676 24.0766 59.1115 13.8011C83.7648 0.498962 116.394 0.498368 181.652 0.498374L448.137 0.498397C513.395 0.498403 546.024 0.498957 570.677 13.8011C589.721 24.0767 605.343 39.6987 615.618 58.7426C628.921 83.3959 628.921 116.338 628.921 182.221C628.921 248.104 628.92 281.045 615.618 305.699C605.343 324.743 589.721 340.364 570.677 350.64C546.024 363.942 513.395 363.943 448.137 363.943L181.651 363.943Z" fill="white" fill-opacity="0.41"/>
<path d="M181.651 363.943L181.651 365.203L181.651 363.943ZM0.867325 182.221L-0.393018 182.221L0.867325 182.221ZM14.1701 58.7425L13.0609 58.144L13.0609 58.144L14.1701 58.7425ZM59.1115 13.8011L58.513 12.6919L58.513 12.6919L59.1115 13.8011ZM181.652 0.498374L181.652 1.75872L181.652 0.498374ZM448.137 0.498397L448.137 -0.761946L448.137 0.498397ZM570.677 13.8011L571.275 12.692L571.275 12.692L570.677 13.8011ZM615.618 58.7426L616.727 58.1441L616.727 58.1441L615.618 58.7426ZM628.921 182.221L630.181 182.221L628.921 182.221ZM615.618 305.699L616.727 306.297L616.727 306.297L615.618 305.699ZM570.677 350.64L571.275 351.749L571.275 351.749L570.677 350.64ZM448.137 363.943L448.137 362.682L448.137 363.943ZM1.50425 242.134L2.76365 242.085L2.76365 242.085L1.50425 242.134ZM181.651 363.943L181.651 362.682C154.044 362.682 132.325 362.681 114.579 361.678L114.508 362.936L114.437 364.194C132.27 365.203 154.071 365.203 181.651 365.203L181.651 363.943ZM92.5197 329.598L93.78 329.598C93.78 300.217 69.9616 276.398 40.5802 276.398L40.5802 277.659L40.5802 278.919C68.5695 278.919 91.2593 301.609 91.2593 329.598L92.5197 329.598ZM1.50425 242.134L2.76365 242.085C2.12803 225.7 2.12767 206.149 2.12767 182.221L0.867325 182.221L-0.393018 182.221C-0.39302 206.133 -0.393074 225.738 0.244853 242.183L1.50425 242.134ZM0.867325 182.221L2.12767 182.221C2.12767 149.258 2.12887 124.614 3.78618 105.127C5.44223 85.6555 8.74482 71.4514 15.2793 59.341L14.1701 58.7425L13.0609 58.144C6.29312 70.6869 2.94433 85.2805 1.27456 104.914C-0.393945 124.532 -0.393015 149.301 -0.393018 182.221L0.867325 182.221ZM14.1701 58.7425L15.2793 59.341C25.4381 40.5135 40.8825 25.069 59.71 14.9103L59.1115 13.8011L58.513 12.6919C39.2527 23.0842 23.4532 38.8838 13.0609 58.144L14.1701 58.7425ZM59.1115 13.8011L59.71 14.9103C71.8217 8.37519 85.9486 5.07304 105.263 3.41717C124.592 1.75994 149.001 1.75871 181.652 1.75872L181.652 0.498374L181.652 -0.76197C149.045 -0.761973 124.51 -0.762905 105.047 0.905696C85.5689 2.57566 71.0546 5.92487 58.513 12.6919L59.1115 13.8011ZM181.652 0.498374L181.652 1.75872L448.137 1.75874L448.137 0.498397L448.137 -0.761946L181.652 -0.76197L181.652 0.498374ZM448.137 0.498397L448.137 1.75874C480.788 1.75874 505.196 1.75996 524.526 3.41719C543.84 5.07306 557.967 8.37521 570.078 14.9103L570.677 13.8011L571.275 12.692C558.734 5.92489 544.22 2.57567 524.741 0.905715C505.279 -0.762883 480.744 -0.761944 448.137 -0.761946L448.137 0.498397ZM570.677 13.8011L570.078 14.9103C588.906 25.0691 604.35 40.5136 614.509 59.341L615.618 58.7426L616.727 58.1441C606.335 38.8838 590.536 23.0843 571.275 12.692L570.677 13.8011ZM615.618 58.7426L614.509 59.341C621.044 71.4515 624.346 85.6555 626.002 105.127C627.66 124.614 627.661 149.258 627.661 182.221L628.921 182.221L630.181 182.221C630.181 149.301 630.182 124.532 628.514 104.914C626.844 85.2806 623.495 70.687 616.727 58.1441L615.618 58.7426ZM628.921 182.221L627.661 182.221C627.661 215.184 627.659 239.828 626.002 259.314C624.346 278.786 621.044 292.99 614.509 305.1L615.618 305.699L616.727 306.297C623.495 293.754 626.844 279.161 628.514 259.528C630.182 239.91 630.181 215.141 630.181 182.221L628.921 182.221ZM615.618 305.699L614.509 305.1C604.35 323.928 588.906 339.372 570.078 349.531L570.677 350.64L571.275 351.749C590.536 341.357 606.335 325.557 616.727 306.297L615.618 305.699ZM570.677 350.64L570.078 349.531C557.967 356.066 543.84 359.368 524.526 361.024C505.196 362.681 480.788 362.682 448.137 362.682L448.137 363.943L448.137 365.203C480.744 365.203 505.279 365.204 524.741 363.535C544.219 361.865 558.734 358.516 571.275 351.749L570.677 350.64ZM448.137 363.943L448.137 362.682L181.651 362.682L181.651 363.943L181.651 365.203L448.137 365.203L448.137 363.943ZM40.5802 277.659L40.5802 276.398C20.4804 276.398 3.53567 261.987 2.76365 242.085L1.50425 242.134L0.244853 242.183C1.07631 263.617 19.313 278.919 40.5802 278.919L40.5802 277.659ZM114.508 362.936L114.579 361.678C107.662 361.286 102.494 357.051 99.0049 350.938C95.5055 344.807 93.78 336.909 93.78 329.598L92.5197 329.598L91.2593 329.598C91.2593 337.253 93.0566 345.602 96.8157 352.187C100.585 358.79 106.412 363.74 114.437 364.194L114.508 362.936Z" fill="white" mask="url(#path-1-inside-1_1_8309)"/>
</svg>
